<svg xmlns="http://www.w3.org/2000/svg" width="800" height="800" viewBox="0 0 390.412 390.412" xml:space="preserve"><path fill="#331904" d="M323.433 211.572c-9.891-12.094-26.1-18.699-46.961-19.219-.575-4.976-4.797-8.841-9.928-8.841H66.452c-5.523 0-10 4.478-10 10v116c0 23.045 12.86 43.685 33.561 53.865v.001a19.377 19.377 0 0 0-1.513 7.535c0 10.752 8.747 19.499 19.499 19.499h116.999c10.752 0 19.499-8.747 19.499-19.499 0-2.607-.509-5.144-1.514-7.536 17.71-8.71 29.673-25.076 32.763-44.052 17.111-3.789 31.613-13.604 42.518-28.944 10.125-14.244 13.489-28.244 13.841-29.795l.07-.333c4.089-20.212 1.147-36.591-8.742-48.681zm-20.614 42.489c-.256 1-2.717 10.09-9.008 18.94-4.866 6.847-10.583 11.714-17.267 14.666v-65.313c7.533.276 18.461 1.847 23.667 8.211 3.888 4.751 4.764 12.658 2.608 23.496zM122.303 71.249c16.242 1.886 32.799 2.14 46.854 2.14 4.57 0 9.141-.028 13.709-.057 7.102-.044 14.195-.088 21.275-.025l1.063.004c1.804 0 3.911-.033 6.106-.068a473.08 473.08 0 0 1 6.889-.078c-4.371.859-9.686 1.808-14.43 2.654-9.556 1.706-19.437 3.47-26.543 5.152l-1.336.315c-13.799 3.253-34.651 8.169-41.382 23.084-2.649 5.745-2.456 12.306.529 17.999 3.149 6.007 8.968 10.282 15.567 11.436 2.307.403 4.787.788 7.483.788 4.389 0 8.791-.397 12.996-1.225 21.754-4.275 21.941 1.369 21.95 1.958.06 3.698-7.134 10.097-10.206 12.83a74.292 74.292 0 0 0-1.614 1.46c-.801.76-1.744 1.601-2.763 2.51-6.228 5.555-14.757 13.163-13.723 21.484a2 2 0 0 0 1.984 1.753l.055-.001a1.998 1.998 0 0 0 1.941-1.86c.238-3.423 3.58-6.422 6.69-8.962 2.954-2.401 6.159-4.639 9.258-6.802a372.67 372.67 0 0 0 3.866-2.721l.099-.07c5.674-4.062 15.17-10.856 16.458-18.999.518-3.267-.316-6.408-2.477-9.337-6.008-8.143-16.831-8.824-26.501-8.824l-.776.001c-1.714.004-3.438.046-5.166.087-1.788.044-3.579.088-5.368.088-3.083 0-5.57-.133-7.826-.429-4.518-.593-6.049-2.999-4.992-4.799 3.143-5.351 18.979-10.081 47.547-13.787 1.554-.202 2.772-.36 3.558-.479 1.752-.269 3.51-.529 5.271-.791 10.118-1.502 20.582-3.057 30.58-6.02 17.827-5.285 21.239-14.262 20.849-21.073a2.199 2.199 0 0 0-.007-.138l.008-.001-.022-.212a13.927 13.927 0 0 0-.041-.422v-.007l-.001-.007v-.001c-.81-7.098-5.737-12.895-13.521-15.905-11.276-4.363-24.504-4.412-36.176-4.455l-3.051-.014c-9.984-.067-20.145.153-29.961.363-8.592.184-17.477.373-26.202.373-8.717 0-16.392-.191-23.462-.586-5.451-.304-11.898-.775-18.388-1.969-4.888-.9-10.97-2.021-14.837-5.292-3.493-2.955.141-9.474 2.55-12.507 7.3-9.19 20.063-12.998 31.585-15.511 10.572-2.306 22.148-3.532 36.433-3.861 9.177-.21 18.124.017 26.625.673.052.004.104.006.156.006.006 0 .013.003.019 0a2 2 0 0 0 .402-3.96C175.545 2.472 158.174 0 141.638 0c-5.104 0-10.193.233-15.124.694-18.993 1.774-43.347 8.564-51.509 30.84-2.766 7.548-2.371 14.292 1.173 20.047 7.849 12.744 29.415 17.73 46.125 19.668z"/></svg>